# xmcd
#
# Track frame offsets:
#	150
#	29912
#	52562
#	70275
#	94012
#	110550
#	138050
#	159912
#	187812
#	206012
#	232737
#	250062
#
# Disc length: 3627
#
# Revision: 1
# Processed by: cddbd v1.5.1PL0 Copyright (c) Steve Scherf et al.
# Submitted via: CDex 1.50
# Normalized: r0:DSETVAR1,TDELIM( - )
#
DISCID=920e290c
DTITLE=Various Artist - All Time Jazz Instrunental Classics - Saxophone
DYEAR=1900
DGENRE=Jazz
TTITLE0=Gene Ammons and Sonny Stitt - Autumn Leaves
TTITLE1=Dexter Gordon - The Shadow Of Your Smile
TTITLE2=Georgie Auld - Taking A Chance On Love
TTITLE3=Stan Getz and Laurindo Almeida - Corcovado
TTITLE4=Ben Webster - Danny Boy
TTITLE5=Sonny Stitt and The Oscar Peterson Trio - Blues For Pres, Sweets, Ben and All The Other Funky Ones
TTITLE6=Benny Golson - Dear Kathy
TTITLE7=Gerry Mulligan - Lady Chatterley's Mother
TTITLE8=Roland Kirk - Once In A While
TTITLE9=Lester Young - Love Is Here To Stay
TTITLE10=Sonny Rollins - What's My Name
TTITLE11=Al Cohn and Zoot Sims - You'd Be So Nice To Come Home To
EXTD=
EXTT0=
EXTT1=
EXTT2=
EXTT3=
EXTT4=
EXTT5=
EXTT6=
EXTT7=
EXTT8=
EXTT9=
EXTT10=
EXTT11=
PLAYORDER=
